<?xml version="1.0" encoding="UTF-8" standalone="no"?>
<!DOCTYPE svg PUBLIC "-//W3C//DTD SVG 1.1//EN"
 "http://www.w3.org/Graphics/SVG/1.1/DTD/svg11.dtd">
<!-- Generated by graphviz version 2.42.4 (0)
 -->
<!-- Title: G Pages: 1 -->
<svg width="721pt" height="180pt"
 viewBox="0.00 0.00 721.00 179.71" xmlns="http://www.w3.org/2000/svg" xmlns:xlink="http://www.w3.org/1999/xlink">
<g id="graph0" class="graph" transform="scale(1 1) rotate(0) translate(4 175.71)">
<title>G</title>
<polygon fill="white" stroke="transparent" points="-4,4 -4,-175.71 717,-175.71 717,4 -4,4"/>
<!-- U -->
<g id="node1" class="node">
<title>U</title>
<polygon fill="none" stroke="black" points="96,-108.71 0,-108.71 0,-72.71 96,-72.71 96,-108.71"/>
<text text-anchor="middle" x="48" y="-87.01" font-family="Arial" font-size="14.00">Browser user</text>
</g>
<!-- P -->
<g id="node3" class="node">
<title>P</title>
<polygon fill="none" stroke="black" points="386,-108.71 299,-108.71 299,-72.71 386,-72.71 386,-108.71"/>
<text text-anchor="middle" x="342.5" y="-87.01" font-family="Arial" font-size="14.00">Public page</text>
</g>
<!-- U&#45;&gt;P -->
<g id="edge1" class="edge">
<title>U&#45;&gt;P</title>
<path fill="none" stroke="black" d="M96.22,-91.53C102.2,-91.6 108.24,-91.67 114,-91.71 188.22,-92.29 206.78,-92.33 281,-91.71 283.53,-91.69 286.11,-91.67 288.73,-91.64"/>
<polygon fill="black" stroke="black" points="288.91,-95.14 298.86,-91.51 288.82,-88.14 288.91,-95.14"/>
</g>
<!-- B -->
<g id="node2" class="node">
<title>B</title>
<polygon fill="none" stroke="black" points="703.5,-146.71 599.5,-146.71 599.5,-110.71 703.5,-110.71 703.5,-146.71"/>
<text text-anchor="middle" x="651.5" y="-125.01" font-family="Arial" font-size="14.00">Browser agent</text>
</g>
<!-- B&#45;&gt;P -->
<g id="edge3" class="edge">
<title>B&#45;&gt;P</title>
<path fill="none" stroke="black" d="M599.18,-126.67C549.09,-124.08 470.86,-118.45 404,-106.71 401.47,-106.27 398.9,-105.77 396.3,-105.23"/>
<polygon fill="black" stroke="black" points="396.79,-101.76 386.27,-102.98 395.26,-108.59 396.79,-101.76"/>
<text text-anchor="middle" x="488" y="-128.51" font-family="Times,serif" font-size="14.00">search/inspect</text>
</g>
<!-- P&#45;&gt;U -->
<g id="edge7" class="edge">
<title>P&#45;&gt;U</title>
<path fill="none" stroke="black" d="M298.88,-76.37C292.93,-74.86 286.86,-73.57 281,-72.71 207.55,-62.02 187.55,-62.72 114,-72.71 111.46,-73.06 108.88,-73.48 106.29,-73.95"/>
<polygon fill="black" stroke="black" points="105.34,-70.57 96.26,-76.04 106.76,-77.43 105.34,-70.57"/>
<text text-anchor="middle" x="197.5" y="-76.51" font-family="Times,serif" font-size="14.00">visible equivalent state</text>
</g>
<!-- P&#45;&gt;B -->
<g id="edge2" class="edge">
<title>P&#45;&gt;B</title>
<path fill="none" stroke="black" d="M386.24,-85.45C432.61,-80.99 508.54,-77.36 572,-91.71 585.35,-94.73 599.11,-100.27 611.31,-106.16"/>
<polygon fill="black" stroke="black" points="609.79,-109.31 620.3,-110.69 612.95,-103.06 609.79,-109.31"/>
<text text-anchor="middle" x="488" y="-95.51" font-family="Times,serif" font-size="14.00">register read&#45;only tools</text>
</g>
<!-- P&#45;&gt;B -->
<g id="edge6" class="edge">
<title>P&#45;&gt;B</title>
<path fill="none" stroke="black" d="M357.77,-108.73C368.86,-121.19 385.44,-136.74 404,-143.71 464.01,-166.28 538.01,-157.37 589.19,-146.05"/>
<polygon fill="black" stroke="black" points="590.16,-149.42 599.11,-143.76 588.58,-142.6 590.16,-149.42"/>
<text text-anchor="middle" x="488" y="-160.51" font-family="Times,serif" font-size="14.00">structured result</text>
</g>
<!-- J -->
<g id="node4" class="node">
<title>J</title>
<polygon fill="none" stroke="black" points="713,-51.71 590,-51.71 590,-15.71 713,-15.71 713,-51.71"/>
<text text-anchor="middle" x="651.5" y="-30.01" font-family="Arial" font-size="14.00">Static JSON/OKF</text>
</g>
<!-- P&#45;&gt;J -->
<g id="edge4" class="edge">
<title>P&#45;&gt;J</title>
<path fill="none" stroke="black" d="M376,-72.69C384.85,-68.47 394.6,-64.42 404,-61.71 461.8,-45.09 529.88,-38.27 579.83,-35.51"/>
<polygon fill="black" stroke="black" points="580.08,-39 589.89,-34.99 579.72,-32.01 580.08,-39"/>
<text text-anchor="middle" x="488" y="-65.51" font-family="Times,serif" font-size="14.00">read public data</text>
</g>
<!-- J&#45;&gt;P -->
<g id="edge5" class="edge">
<title>J&#45;&gt;P</title>
<path fill="none" stroke="black" d="M596.25,-15.67C544.34,-1.66 465.13,11.02 404,-17.71 383.76,-27.23 367.97,-47.2 357.6,-63.85"/>
<polygon fill="black" stroke="black" points="354.46,-62.28 352.4,-72.67 360.49,-65.83 354.46,-62.28"/>
<text text-anchor="middle" x="488" y="-21.51" font-family="Times,serif" font-size="14.00">records/provenance</text>
</g>
</g>
</svg>
